<svg id="SvgjsSvg1006" width="1403" height="1158.5" xmlns="http://www.w3.org/2000/svg" version="1.1" xmlns:xlink="http://www.w3.org/1999/xlink" xmlns:svgjs="http://svgjs.com/svgjs"><defs id="SvgjsDefs1007"><marker id="SvgjsMarker1049" markerWidth="16" markerHeight="12" refX="16" refY="6" viewBox="0 0 16 12" orient="auto" markerUnits="userSpaceOnUse" stroke-dasharray="0,0"><path id="SvgjsPath1050" d="M0,2 L14,6 L0,11 L0,2" fill="#323232" stroke="#323232" stroke-width="2"></path></marker><marker id="SvgjsMarker1057" markerWidth="16" markerHeight="12" refX="16" refY="6" viewBox="0 0 16 12" orient="auto" markerUnits="userSpaceOnUse" stroke-dasharray="0,0"><path id="SvgjsPath1058" d="M0,2 L14,6 L0,11 L0,2" fill="#323232" stroke="#323232" stroke-width="2"></path></marker><marker id="SvgjsMarker1065" markerWidth="16" markerHeight="12" refX="16" refY="6" viewBox="0 0 16 12" orient="auto" markerUnits="userSpaceOnUse" stroke-dasharray="0,0"><path id="SvgjsPath1066" d="M0,2 L14,6 L0,11 L0,2" fill="#323232" stroke="#323232" stroke-width="2"></path></marker><marker id="SvgjsMarker1079" markerWidth="16" markerHeight="12" refX="16" refY="6" viewBox="0 0 16 12" orient="auto" markerUnits="userSpaceOnUse" stroke-dasharray="0,0"><path id="SvgjsPath1080" d="M0,2 L14,6 L0,11 L0,2" fill="#323232" stroke="#323232" stroke-width="2"></path></marker><marker id="SvgjsMarker1087" markerWidth="16" markerHeight="12" refX="16" refY="6" viewBox="0 0 16 12" orient="auto" markerUnits="userSpaceOnUse" stroke-dasharray="0,0"><path id="SvgjsPath1088" d="M0,2 L14,6 L0,11 L0,2" fill="#323232" stroke="#323232" stroke-width="2"></path></marker><marker id="SvgjsMarker1095" markerWidth="16" markerHeight="12" refX="16" refY="6" viewBox="0 0 16 12" orient="auto" markerUnits="userSpaceOnUse" stroke-dasharray="0,0"><path id="SvgjsPath1096" d="M0,2 L14,6 L0,11 L0,2" fill="#323232" stroke="#323232" stroke-width="2"></path></marker><marker id="SvgjsMarker1105" markerWidth="16" markerHeight="12" refX="16" refY="6" viewBox="0 0 16 12" orient="auto" markerUnits="userSpaceOnUse" stroke-dasharray="0,0"><path id="SvgjsPath1106" d="M0,2 L14,6 L0,11 L0,2" fill="#323232" stroke="#323232" stroke-width="2"></path></marker><marker id="SvgjsMarker1124" markerWidth="16" markerHeight="12" refX="16" refY="6" viewBox="0 0 16 12" orient="auto" markerUnits="userSpaceOnUse" stroke-dasharray="0,0"><path id="SvgjsPath1125" d="M0,2 L14,6 L0,11 L0,2" fill="#323232" stroke="#323232" stroke-width="2"></path></marker><marker id="SvgjsMarker1134" markerWidth="16" markerHeight="12" refX="16" refY="6" viewBox="0 0 16 12" orient="auto" markerUnits="userSpaceOnUse" stroke-dasharray="0,0"><path id="SvgjsPath1135" d="M0,2 L14,6 L0,11 L0,2" fill="#323232" stroke="#323232" stroke-width="2"></path></marker><marker id="SvgjsMarker1144" markerWidth="16" markerHeight="12" refX="16" refY="6" viewBox="0 0 16 12" orient="auto" markerUnits="userSpaceOnUse" stroke-dasharray="0,0"><path id="SvgjsPath1145" d="M0,2 L14,6 L0,11 L0,2" fill="#323232" stroke="#323232" stroke-width="2"></path></marker><marker id="SvgjsMarker1154" markerWidth="16" markerHeight="12" refX="16" refY="6" viewBox="0 0 16 12" orient="auto" markerUnits="userSpaceOnUse" stroke-dasharray="0,0"><path id="SvgjsPath1155" d="M0,2 L14,6 L0,11 L0,2" fill="#323232" stroke="#323232" stroke-width="2"></path></marker><marker id="SvgjsMarker1164" markerWidth="16" markerHeight="12" refX="16" refY="6" viewBox="0 0 16 12" orient="auto" markerUnits="userSpaceOnUse" stroke-dasharray="0,0"><path id="SvgjsPath1165" d="M0,2 L14,6 L0,11 L0,2" fill="#323232" stroke="#323232" stroke-width="2"></path></marker><marker id="SvgjsMarker1172" markerWidth="16" markerHeight="12" refX="16" refY="6" viewBox="0 0 16 12" orient="auto" markerUnits="userSpaceOnUse" stroke-dasharray="0,0"><path id="SvgjsPath1173" d="M0,2 L14,6 L0,11 L0,2" fill="#323232" stroke="#323232" stroke-width="2"></path></marker><marker id="SvgjsMarker1191" markerWidth="16" markerHeight="12" refX="16" refY="6" viewBox="0 0 16 12" orient="auto" markerUnits="userSpaceOnUse" stroke-dasharray="0,0"><path id="SvgjsPath1192" d="M0,2 L14,6 L0,11 L0,2" fill="#323232" stroke="#323232" stroke-width="2"></path></marker><marker id="SvgjsMarker1199" markerWidth="16" markerHeight="12" refX="16" refY="6" viewBox="0 0 16 12" orient="auto" markerUnits="userSpaceOnUse" stroke-dasharray="0,0"><path id="SvgjsPath1200" d="M0,2 L14,6 L0,11 L0,2" fill="#323232" stroke="#323232" stroke-width="2"></path></marker></defs><rect id="SvgjsRect1008" width="1403" height="1158.5" fill="#ffffff"></rect><g id="SvgjsG1009" transform="translate(25,30.5)"><path id="SvgjsPath1010" d="M 75 30L 75 1103.5" stroke-dasharray="3,4" stroke="rgba(50,50,50,1)" stroke-width="2" fill="none"></path><path id="SvgjsPath1011" d="M 0 0L 150 0L 150 30L 0 30Z" stroke="rgba(50,50,50,1)" stroke-width="2" fill-opacity="1" fill="#ffffff"></path><g id="SvgjsG1012"><text id="SvgjsText1013" font-family="微软雅黑" text-anchor="middle" font-size="13px" width="130px" fill="#323232" font-weight="400" align="middle" anchor="middle" family="微软雅黑" size="13px" weight="400" font-style="" opacity="1" y="5.05" transform="rotate(0)"><tspan id="SvgjsTspan1014" dy="16" x="75"><tspan id="SvgjsTspan1015" style="text-decoration:;">PowerManager.java</tspan></tspan></text></g></g><g id="SvgjsG1016" transform="translate(540.494140625,30.5)"><path id="SvgjsPath1017" d="M 55.505859375 30L 55.505859375 1092.5" stroke-dasharray="3,4" stroke="rgba(50,50,50,1)" stroke-width="2" fill="none"></path><path id="SvgjsPath1018" d="M 0 0L 111.01171875 0L 111.01171875 30L 0 30Z" stroke="rgba(50,50,50,1)" stroke-width="2" fill-opacity="1" fill="#ffffff"></path><g id="SvgjsG1019"><text id="SvgjsText1020" font-family="微软雅黑" text-anchor="middle" font-size="13px" width="92px" fill="#323232" font-weight="400" align="middle" anchor="middle" family="微软雅黑" size="13px" weight="400" font-style="" opacity="1" y="5.05" transform="rotate(0)"><tspan id="SvgjsTspan1021" dy="16" x="56"><tspan id="SvgjsTspan1022" style="text-decoration:;">Notifier.java</tspan></tspan></text></g></g><g id="SvgjsG1023" transform="translate(769,25)"><path id="SvgjsPath1024" d="M 59.7529296875 30L 59.7529296875 1098" stroke-dasharray="3,4" stroke="rgba(50,50,50,1)" stroke-width="2" fill="none"></path><path id="SvgjsPath1025" d="M 0 0L 119.505859375 0L 119.505859375 30L 0 30Z" stroke="rgba(50,50,50,1)" stroke-width="2" fill-opacity="1" fill="#ffffff"></path><g id="SvgjsG1026"><text id="SvgjsText1027" font-family="微软雅黑" text-anchor="middle" font-size="13px" width="100px" fill="#323232" font-weight="400" align="middle" anchor="middle" family="微软雅黑" size="13px" weight="400" font-style="" opacity="1" y="-2.95" transform="rotate(0)"><tspan id="SvgjsTspan1028" dy="16" x="60"><tspan id="SvgjsTspan1029" style="text-decoration:;">PhoneWindow</tspan></tspan><tspan id="SvgjsTspan1030" dy="16" x="60"><tspan id="SvgjsTspan1031" style="text-decoration:;">Manager.java</tspan></tspan></text></g></g><g id="SvgjsG1032" transform="translate(193,30.5)"><path id="SvgjsPath1033" d="M 102.5 30L 102.5 1092.5" stroke-dasharray="3,4" stroke="rgba(50,50,50,1)" stroke-width="2" fill="none"></path><path id="SvgjsPath1034" d="M 0 0L 205 0L 205 30L 0 30Z" stroke="rgba(50,50,50,1)" stroke-width="2" fill-opacity="1" fill="#ffffff"></path><g id="SvgjsG1035"><text id="SvgjsText1036" font-family="微软雅黑" text-anchor="middle" font-size="13px" width="185px" fill="#323232" font-weight="400" align="middle" anchor="middle" family="微软雅黑" size="13px" weight="400" font-style="" opacity="1" y="5.05" transform="rotate(0)"><tspan id="SvgjsTspan1037" dy="16" x="102.5"><tspan id="SvgjsTspan1038" style="text-decoration:;">PowerManagerService.java</tspan></tspan></text></g></g><g id="SvgjsG1039" transform="translate(85,97)"><path id="SvgjsPath1040" d="M 0 4Q 0 0 4 0L 26 0Q 30 0 30 4L 30 55Q 30 59 26 59L 4 59Q 0 59 0 55L 0 4Z" stroke="rgba(50,50,50,1)" stroke-width="2" fill-opacity="1" fill="#ffffff"></path></g><g id="SvgjsG1041" transform="translate(286.3720703125,92)"><path id="SvgjsPath1042" d="M 0 4Q 0 0 4 0L 26 0Q 30 0 30 4L 30 919Q 30 923 26 923L 4 923Q 0 923 0 919L 0 4Z" stroke="rgba(50,50,50,1)" stroke-width="2" fill-opacity="1" fill="#ffffff"></path></g><g id="SvgjsG1043" transform="translate(581,270.25)"><path id="SvgjsPath1044" d="M 0 4Q 0 0 4 0L 26 0Q 30 0 30 4L 30 150.75Q 30 154.75 26 154.75L 4 154.75Q 0 154.75 0 150.75L 0 4Z" stroke="rgba(50,50,50,1)" stroke-width="2" fill-opacity="1" fill="#ffffff"></path></g><g id="SvgjsG1045" transform="translate(817,340.25)"><path id="SvgjsPath1046" d="M 0 4Q 0 0 4 0L 26 0Q 30 0 30 4L 30 35.5Q 30 39.5 26 39.5L 4 39.5Q 0 39.5 0 35.5L 0 4Z" stroke="rgba(50,50,50,1)" stroke-width="2" fill-opacity="1" fill="#ffffff"></path></g><g id="SvgjsG1047"><path id="SvgjsPath1048" d="M315.0603073792141 97.77312255446378L355.80384757729337 97.77312255446378L355.80384757729337 129L325.80384757729337 129" stroke="#323232" stroke-width="2" fill="none" marker-end="url(#SvgjsMarker1049)"></path><rect id="SvgjsRect1051" width="120" height="16" x="295.80384757729337" y="105.38656127723186" fill="#ffffff"></rect><text id="SvgjsText1052" font-family="微软雅黑" text-anchor="middle" font-size="13px" width="120px" fill="#323232" font-weight="400" align="top" anchor="middle" family="微软雅黑" size="13px" weight="400" font-style="" opacity="1" y="103.43656127723186" transform="rotate(0)"><tspan id="SvgjsTspan1053" dy="16" x="355.80384757729337"><tspan id="SvgjsTspan1054" style="text-decoration:;">gotoSleepInternal()</tspan></tspan></text></g><g id="SvgjsG1055"><path id="SvgjsPath1056" d="M115 99.6099195710456L200.90953893117887 99.6099195710456L200.90953893117887 99.91699075337445L286.81907786235774 99.91699075337445" stroke="#323232" stroke-width="2" fill="none" marker-end="url(#SvgjsMarker1057)"></path><rect id="SvgjsRect1059" width="72" height="16" x="164.90953893117887" y="91.76345516221002" fill="#ffffff"></rect><text id="SvgjsText1060" font-family="微软雅黑" text-anchor="middle" font-size="13px" width="72px" fill="#323232" font-weight="400" align="top" anchor="middle" family="微软雅黑" size="13px" weight="400" font-style="" opacity="1" y="89.81345516221002" transform="rotate(0)"><tspan id="SvgjsTspan1061" dy="16" x="200.90953893117887"><tspan id="SvgjsTspan1062" style="text-decoration:;">gotoSleep()</tspan></tspan></text></g><g id="SvgjsG1063"><path id="SvgjsPath1064" d="M330 159.4040816326531L372.6698729810778 159.4040816326531L372.6698729810778 196.36956521739125L342.6698729810778 196.36956521739125" stroke="#323232" stroke-width="2" fill="none" marker-end="url(#SvgjsMarker1065)"></path><rect id="SvgjsRect1067" width="181" height="16" x="282.1698729810778" y="163.55188693448326" fill="#ffffff"></rect><text id="SvgjsText1068" font-family="微软雅黑" text-anchor="middle" font-size="13px" width="181px" fill="#323232" font-weight="400" align="top" anchor="middle" family="微软雅黑" size="13px" weight="400" font-style="" opacity="1" y="161.60188693448328" transform="rotate(0)"><tspan id="SvgjsTspan1069" dy="16" x="372.6698729810778"><tspan id="SvgjsTspan1070" style="text-decoration:;">gotoSleepNoUpdateLocked()</tspan></tspan></text></g><g id="SvgjsG1071" transform="translate(300,129)"><path id="SvgjsPath1072" d="M 0 4Q 0 0 4 0L 26 0Q 30 0 30 4L 30 855.5Q 30 859.5 26 859.5L 4 859.5Q 0 859.5 0 855.5L 0 4Z" stroke="rgba(50,50,50,1)" stroke-width="2" fill-opacity="1" fill="#ffffff"></path></g><g id="SvgjsG1073" transform="translate(316.3720703125,196)"><path id="SvgjsPath1074" d="M 0 4Q 0 0 4 0L 26 0Q 30 0 30 4L 30 132Q 30 136 26 136L 4 136Q 0 136 0 132L 0 4Z" stroke="rgba(50,50,50,1)" stroke-width="2" fill-opacity="1" fill="#ffffff"></path></g><g id="SvgjsG1075" transform="translate(333,266.25)"><path id="SvgjsPath1076" d="M 0 4Q 0 0 4 0L 26 0Q 30 0 30 4L 30 37.5Q 30 41.5 26 41.5L 4 41.5Q 0 41.5 0 37.5L 0 4Z" stroke="rgba(50,50,50,1)" stroke-width="2" fill-opacity="1" fill="#ffffff"></path></g><g id="SvgjsG1077"><path id="SvgjsPath1078" d="M346 207L392.0190265095413 207L392.0190265095413 267.26084816620136L362.0190265095413 267.26084816620136" stroke="#323232" stroke-width="2" fill="none" marker-end="url(#SvgjsMarker1079)"></path><rect id="SvgjsRect1081" width="305" height="16" x="239.5" y="220" fill="#ffffff"></rect><text id="SvgjsText1082" font-family="微软雅黑" text-anchor="middle" font-size="13px" width="305px" fill="#323232" font-weight="400" align="top" anchor="middle" family="微软雅黑" size="13px" weight="400" font-style="" opacity="1" y="218.05" transform="rotate(0)"><tspan id="SvgjsTspan1083" dy="16" x="392"><tspan id="SvgjsTspan1084" style="text-decoration:;">setWakefulnessLocked() WAKEFULNESS_DOZING</tspan></tspan></text></g><g id="SvgjsG1085"><path id="SvgjsPath1086" d="M363 272.2675L472.4544232590366 272.2675L472.4544232590366 274.3844003154426L581.9088465180732 274.3844003154426" stroke="#323232" stroke-width="2" fill="none" marker-end="url(#SvgjsMarker1087)"></path><rect id="SvgjsRect1089" width="188" height="16" x="378.4544232590366" y="265.3259501577213" fill="#ffffff"></rect><text id="SvgjsText1090" font-family="微软雅黑" text-anchor="middle" font-size="13px" width="188px" fill="#323232" font-weight="400" align="top" anchor="middle" family="微软雅黑" size="13px" weight="400" font-style="" opacity="1" y="263.3759501577213" transform="rotate(0)"><tspan id="SvgjsTspan1091" dy="16" x="472.4544232590366"><tspan id="SvgjsTspan1092" style="text-decoration:;">onWakefulnessChangeStarte()</tspan></tspan></text></g><g id="SvgjsG1093"><path id="SvgjsPath1094" d="M624 344L722 344L722 344L820 344" stroke="#323232" stroke-width="2" fill="none" marker-end="url(#SvgjsMarker1095)"></path><rect id="SvgjsRect1097" width="131" height="16" x="656.5" y="349" fill="#ffffff"></rect><text id="SvgjsText1098" font-family="微软雅黑" text-anchor="middle" font-size="13px" width="131px" fill="#323232" font-weight="400" align="top" anchor="middle" family="微软雅黑" size="13px" weight="400" font-style="" opacity="1" y="347.05" transform="rotate(0)"><tspan id="SvgjsTspan1099" dy="16" x="722"><tspan id="SvgjsTspan1100" style="text-decoration:;">startedGoingToSleep</tspan></tspan></text></g><g id="SvgjsG1101" transform="translate(594,303)"><path id="SvgjsPath1102" d="M 0 4Q 0 0 4 0L 26 0Q 30 0 30 4L 30 78Q 30 82 26 82L 4 82Q 0 82 0 78L 0 4Z" stroke="rgba(50,50,50,1)" stroke-width="2" fill-opacity="1" fill="#ffffff"></path></g><g id="SvgjsG1103"><path id="SvgjsPath1104" d="M609.0911534819268 271.26486404110767L654 271.26486404110767L654 326L624 326" stroke="#323232" stroke-width="2" fill="none" marker-end="url(#SvgjsMarker1105)"></path><rect id="SvgjsRect1107" width="187" height="16" x="560.5" y="283.1780087615172" fill="#ffffff"></rect><text id="SvgjsText1108" font-family="微软雅黑" text-anchor="middle" font-size="13px" width="187px" fill="#323232" font-weight="400" align="top" anchor="middle" family="微软雅黑" size="13px" weight="400" font-style="" opacity="1" y="281.22800876151723" transform="rotate(0)"><tspan id="SvgjsTspan1109" dy="16" x="654"><tspan id="SvgjsTspan1110" style="text-decoration:;">handleEarlyInterativeChange()</tspan></tspan></text></g><g id="SvgjsG1111" transform="translate(899,25)"><path id="SvgjsPath1112" d="M 108 30L 108 1098" stroke-dasharray="3,4" stroke="rgba(50,50,50,1)" stroke-width="2" fill="none"></path><path id="SvgjsPath1113" d="M 0 0L 216 0L 216 30L 0 30Z" stroke="rgba(50,50,50,1)" stroke-width="2" fill-opacity="1" fill="#ffffff"></path><g id="SvgjsG1114"><text id="SvgjsText1115" font-family="微软雅黑" text-anchor="middle" font-size="13px" width="196px" fill="#323232" font-weight="400" align="middle" anchor="middle" family="微软雅黑" size="13px" weight="400" font-style="" opacity="1" y="5.05" transform="rotate(0)"><tspan id="SvgjsTspan1116" dy="16" x="108"><tspan id="SvgjsTspan1117" style="text-decoration:;">DisplayManagerService.java</tspan></tspan></text></g></g><g id="SvgjsG1118" transform="translate(992,921)"><path id="SvgjsPath1119" d="M 0 4Q 0 0 4 0L 26 0Q 30 0 30 4L 30 47Q 30 51 26 51L 4 51Q 0 51 0 47L 0 4Z" stroke="rgba(50,50,50,1)" stroke-width="2" fill-opacity="1" fill="#ffffff"></path></g><g id="SvgjsG1120" transform="translate(316.3720703125,389)"><path id="SvgjsPath1121" d="M 0 4Q 0 0 4 0L 26 0Q 30 0 30 4L 30 576Q 30 580 26 580L 4 580Q 0 580 0 576L 0 4Z" stroke="rgba(50,50,50,1)" stroke-width="2" fill-opacity="1" fill="#ffffff"></path></g><g id="SvgjsG1122"><path id="SvgjsPath1123" d="M330 351L376 351L376 423.4864864864865L346 423.4864864864865" stroke="#323232" stroke-width="2" fill="none" marker-end="url(#SvgjsMarker1124)"></path><rect id="SvgjsRect1126" width="159" height="16" x="296.5" y="424.86216216216224" fill="#ffffff"></rect><text id="SvgjsText1127" font-family="微软雅黑" text-anchor="middle" font-size="13px" width="159px" fill="#323232" font-weight="400" align="top" anchor="middle" family="微软雅黑" size="13px" weight="400" font-style="" opacity="1" y="422.91216216216225" transform="rotate(0)"><tspan id="SvgjsTspan1128" dy="16" x="376"><tspan id="SvgjsTspan1129" style="text-decoration:;">updatePowerStateLocked</tspan></tspan></text></g><g id="SvgjsG1130" transform="translate(330,490)"><path id="SvgjsPath1131" d="M 0 4Q 0 0 4 0L 26 0Q 30 0 30 4L 30 202Q 30 206 26 206L 4 206Q 0 206 0 202L 0 4Z" stroke="rgba(50,50,50,1)" stroke-width="2" fill-opacity="1" fill="#ffffff"></path></g><g id="SvgjsG1132"><path id="SvgjsPath1133" d="M346 457L494 457L494 507L360 507" stroke="#323232" stroke-width="2" fill="none" marker-end="url(#SvgjsMarker1134)"></path><rect id="SvgjsRect1136" width="130" height="16" x="429" y="496.5" fill="#ffffff"></rect><text id="SvgjsText1137" font-family="微软雅黑" text-anchor="middle" font-size="13px" width="130px" fill="#323232" font-weight="400" align="top" anchor="middle" family="微软雅黑" size="13px" weight="400" font-style="" opacity="1" y="494.55" transform="rotate(0)"><tspan id="SvgjsTspan1138" dy="16" x="494"><tspan id="SvgjsTspan1139" style="text-decoration:;">updateDreamLocked</tspan></tspan></text></g><g id="SvgjsG1140" transform="translate(346.3720703125,568)"><path id="SvgjsPath1141" d="M 0 4Q 0 0 4 0L 26 0Q 30 0 30 4L 30 96Q 30 100 26 100L 4 100Q 0 100 0 96L 0 4Z" stroke="rgba(50,50,50,1)" stroke-width="2" fill-opacity="1" fill="#ffffff"></path></g><g id="SvgjsG1142"><path id="SvgjsPath1143" d="M359.6279296875 535.5205992509364L406.3720703125 535.5205992509364L406.3720703125 596L376.3720703125 596" stroke="#323232" stroke-width="2" fill="none" marker-end="url(#SvgjsMarker1144)"></path><rect id="SvgjsRect1146" width="247" height="16" x="282.8720703125" y="549.3882293129682" fill="#ffffff"></rect><text id="SvgjsText1147" font-family="微软雅黑" text-anchor="middle" font-size="13px" width="247px" fill="#323232" font-weight="400" align="top" anchor="middle" family="微软雅黑" size="13px" weight="400" font-style="" opacity="1" y="547.4382293129681" transform="rotate(0)"><tspan id="SvgjsTspan1148" dy="16" x="406.3720703125"><tspan id="SvgjsTspan1149" style="text-decoration:;">reallyGotoSleep WAKEFULNESS_ASLEEP</tspan></tspan></text></g><g id="SvgjsG1150" transform="translate(333,756)"><path id="SvgjsPath1151" d="M 0 4Q 0 0 4 0L 26 0Q 30 0 30 4L 30 66Q 30 70 26 70L 4 70Q 0 70 0 66L 0 4Z" stroke="rgba(50,50,50,1)" stroke-width="2" fill-opacity="1" fill="#ffffff"></path></g><g id="SvgjsG1152"><path id="SvgjsPath1153" d="M346 719L393 719L393 791L363 791" stroke="#323232" stroke-width="2" fill="none" marker-end="url(#SvgjsMarker1154)"></path><rect id="SvgjsRect1156" width="211" height="16" x="287.5" y="738.5" fill="#ffffff"></rect><text id="SvgjsText1157" font-family="微软雅黑" text-anchor="middle" font-size="13px" width="211px" fill="#323232" font-weight="400" align="top" anchor="middle" family="微软雅黑" size="13px" weight="400" font-style="" opacity="1" y="736.55" transform="rotate(0)"><tspan id="SvgjsTspan1158" dy="16" x="393"><tspan id="SvgjsTspan1159" style="text-decoration:;">updateWakeLockSummaryLocked</tspan></tspan></text></g><g id="SvgjsG1160" transform="translate(333,860)"><path id="SvgjsPath1161" d="M 0 4Q 0 0 4 0L 26 0Q 30 0 30 4L 30 96Q 30 100 26 100L 4 100Q 0 100 0 96L 0 4Z" stroke="rgba(50,50,50,1)" stroke-width="2" fill-opacity="1" fill="#ffffff"></path></g><g id="SvgjsG1162"><path id="SvgjsPath1163" d="M347 826L347 843L479 843L479 910L363 910" stroke="#323232" stroke-width="2" fill="none" marker-end="url(#SvgjsMarker1164)"></path><rect id="SvgjsRect1166" width="204" height="16" x="377" y="852" fill="#ffffff"></rect><text id="SvgjsText1167" font-family="微软雅黑" text-anchor="middle" font-size="13px" width="204px" fill="#323232" font-weight="400" align="top" anchor="middle" family="微软雅黑" size="13px" weight="400" font-style="" opacity="1" y="850.05" transform="rotate(0)"><tspan id="SvgjsTspan1168" dy="16" x="479"><tspan id="SvgjsTspan1169" style="text-decoration:;">updateDisplayPowerStateLocked</tspan></tspan></text></g><g id="SvgjsG1170"><path id="SvgjsPath1171" d="M363 932L677.5 932L677.5 928.65L992 928.65" stroke="#323232" stroke-width="2" fill="none" marker-end="url(#SvgjsMarker1172)"></path><rect id="SvgjsRect1174" width="117" height="16" x="619" y="922.325" fill="#ffffff"></rect><text id="SvgjsText1175" font-family="微软雅黑" text-anchor="middle" font-size="13px" width="117px" fill="#323232" font-weight="400" align="top" anchor="middle" family="微软雅黑" size="13px" weight="400" font-style="" opacity="1" y="920.375" transform="rotate(0)"><tspan id="SvgjsTspan1176" dy="16" x="677.5"><tspan id="SvgjsTspan1177" style="text-decoration:;">requestPowerState</tspan></tspan></text></g><g id="SvgjsG1178" transform="translate(1181,25)"><path id="SvgjsPath1179" d="M 98.5 30L 98.5 1086" stroke-dasharray="3,4" stroke="rgba(50,50,50,1)" stroke-width="2" fill="none"></path><path id="SvgjsPath1180" d="M 0 0L 197 0L 197 30L 0 30Z" stroke="rgba(50,50,50,1)" stroke-width="2" fill-opacity="1" fill="#ffffff"></path><g id="SvgjsG1181"><text id="SvgjsText1182" font-family="微软雅黑" text-anchor="middle" font-size="13px" width="177px" fill="#323232" font-weight="400" align="middle" anchor="middle" family="微软雅黑" size="13px" weight="400" font-style="" opacity="1" y="5.05" transform="rotate(0)"><tspan id="SvgjsTspan1183" dy="16" x="98.5"><tspan id="SvgjsTspan1184" style="text-decoration:;">DisplayPowerController.java</tspan></tspan></text></g></g><g id="SvgjsG1185" transform="translate(1269,915)"><path id="SvgjsPath1186" d="M 0 4Q 0 0 4 0L 26 0Q 30 0 30 4L 30 53Q 30 57 26 57L 4 57Q 0 57 0 53L 0 4Z" stroke="rgba(50,50,50,1)" stroke-width="2" fill-opacity="1" fill="#ffffff"></path></g><g id="SvgjsG1187" transform="translate(1264.5,1044)"><path id="SvgjsPath1188" d="M 0 4Q 0 0 4 0L 26 0Q 30 0 30 4L 30 59Q 30 63 26 63L 4 63Q 0 63 0 59L 0 4Z" stroke="rgba(50,50,50,1)" stroke-width="2" fill-opacity="1" fill="#ffffff"></path></g><g id="SvgjsG1189"><path id="SvgjsPath1190" d="M1022 927L1145.5 927L1145.5 925L1269 925" stroke="#323232" stroke-width="2" fill="none" marker-end="url(#SvgjsMarker1191)"></path><rect id="SvgjsRect1193" width="117" height="16" x="1087" y="918" fill="#ffffff"></rect><text id="SvgjsText1194" font-family="微软雅黑" text-anchor="middle" font-size="13px" width="117px" fill="#323232" font-weight="400" align="top" anchor="middle" family="微软雅黑" size="13px" weight="400" font-style="" opacity="1" y="916.05" transform="rotate(0)"><tspan id="SvgjsTspan1195" dy="16" x="1145.5"><tspan id="SvgjsTspan1196" style="text-decoration:;">requestPowerState</tspan></tspan></text></g><g id="SvgjsG1197"><path id="SvgjsPath1198" d="M1297 925L1327 925L1327 1058L1294 1058" stroke="#323232" stroke-width="2" fill="none" marker-end="url(#SvgjsMarker1199)"></path><rect id="SvgjsRect1201" width="115" height="16" x="1269.5" y="985" fill="#ffffff"></rect><text id="SvgjsText1202" font-family="微软雅黑" text-anchor="middle" font-size="13px" width="115px" fill="#323232" font-weight="400" align="top" anchor="middle" family="微软雅黑" size="13px" weight="400" font-style="" opacity="1" y="983.05" transform="rotate(0)"><tspan id="SvgjsTspan1203" dy="16" x="1327"><tspan id="SvgjsTspan1204" style="text-decoration:;">updatePowerState</tspan></tspan></text></g></svg>