<svg id="SvgjsSvg1006" width="1268" height="964" xmlns="http://www.w3.org/2000/svg" version="1.1" xmlns:xlink="http://www.w3.org/1999/xlink" xmlns:svgjs="http://svgjs.com/svgjs"><defs id="SvgjsDefs1007"><marker id="SvgjsMarker1036" markerWidth="16" markerHeight="12" refX="16" refY="6" viewBox="0 0 16 12" orient="auto" markerUnits="userSpaceOnUse" stroke-dasharray="0,0"><path id="SvgjsPath1037" d="M0,2 L14,6 L0,11 L0,2" fill="#323232" stroke="#323232" stroke-width="2"></path></marker><marker id="SvgjsMarker1046" markerWidth="16" markerHeight="12" refX="16" refY="6" viewBox="0 0 16 12" orient="auto" markerUnits="userSpaceOnUse" stroke-dasharray="0,0"><path id="SvgjsPath1047" d="M0,2 L14,6 L0,11 L0,2" fill="#323232" stroke="#323232" stroke-width="2"></path></marker><marker id="SvgjsMarker1063" markerWidth="16" markerHeight="12" refX="16" refY="6" viewBox="0 0 16 12" orient="auto" markerUnits="userSpaceOnUse" stroke-dasharray="0,0"><path id="SvgjsPath1064" d="M0,2 L14,6 L0,11 L0,2" fill="#323232" stroke="#323232" stroke-width="2"></path></marker><marker id="SvgjsMarker1073" markerWidth="16" markerHeight="12" refX="16" refY="6" viewBox="0 0 16 12" orient="auto" markerUnits="userSpaceOnUse" stroke-dasharray="0,0"><path id="SvgjsPath1074" d="M0,2 L14,6 L0,11 L0,2" fill="#323232" stroke="#323232" stroke-width="2"></path></marker><marker id="SvgjsMarker1083" markerWidth="16" markerHeight="12" refX="16" refY="6" viewBox="0 0 16 12" orient="auto" markerUnits="userSpaceOnUse" stroke-dasharray="0,0"><path id="SvgjsPath1084" d="M0,2 L14,6 L0,11 L0,2" fill="#323232" stroke="#323232" stroke-width="2"></path></marker><marker id="SvgjsMarker1102" markerWidth="16" markerHeight="12" refX="16" refY="6" viewBox="0 0 16 12" orient="auto" markerUnits="userSpaceOnUse" stroke-dasharray="0,0"><path id="SvgjsPath1103" d="M0,2 L14,6 L0,11 L0,2" fill="#323232" stroke="#323232" stroke-width="2"></path></marker><marker id="SvgjsMarker1112" markerWidth="16" markerHeight="12" refX="16" refY="6" viewBox="0 0 16 12" orient="auto" markerUnits="userSpaceOnUse" stroke-dasharray="0,0"><path id="SvgjsPath1113" d="M0,2 L14,6 L0,11 L0,2" fill="#323232" stroke="#323232" stroke-width="2"></path></marker><marker id="SvgjsMarker1120" markerWidth="16" markerHeight="12" refX="16" refY="6" viewBox="0 0 16 12" orient="auto" markerUnits="userSpaceOnUse" stroke-dasharray="0,0"><path id="SvgjsPath1121" d="M0,2 L14,6 L0,11 L0,2" fill="#323232" stroke="#323232" stroke-width="2"></path></marker><marker id="SvgjsMarker1139" markerWidth="16" markerHeight="12" refX="16" refY="6" viewBox="0 0 16 12" orient="auto" markerUnits="userSpaceOnUse" stroke-dasharray="0,0"><path id="SvgjsPath1140" d="M0,2 L14,6 L0,11 L0,2" fill="#323232" stroke="#323232" stroke-width="2"></path></marker><marker id="SvgjsMarker1149" markerWidth="16" markerHeight="12" refX="16" refY="6" viewBox="0 0 16 12" orient="auto" markerUnits="userSpaceOnUse" stroke-dasharray="0,0"><path id="SvgjsPath1150" d="M0,2 L14,6 L0,11 L0,2" fill="#323232" stroke="#323232" stroke-width="2"></path></marker><marker id="SvgjsMarker1157" markerWidth="16" markerHeight="12" refX="16" refY="6" viewBox="0 0 16 12" orient="auto" markerUnits="userSpaceOnUse" stroke-dasharray="0,0"><path id="SvgjsPath1158" d="M0,2 L14,6 L0,11 L0,2" fill="#323232" stroke="#323232" stroke-width="2"></path></marker><marker id="SvgjsMarker1167" markerWidth="16" markerHeight="12" refX="16" refY="6" viewBox="0 0 16 12" orient="auto" markerUnits="userSpaceOnUse" stroke-dasharray="0,0"><path id="SvgjsPath1168" d="M0,2 L14,6 L0,11 L0,2" fill="#323232" stroke="#323232" stroke-width="2"></path></marker><marker id="SvgjsMarker1177" markerWidth="16" markerHeight="12" refX="16" refY="6" viewBox="0 0 16 12" orient="auto" markerUnits="userSpaceOnUse" stroke-dasharray="0,0"><path id="SvgjsPath1178" d="M0,2 L14,6 L0,11 L0,2" fill="#323232" stroke="#323232" stroke-width="2"></path></marker></defs><rect id="SvgjsRect1008" width="1268" height="964" fill="#ffffff"></rect><g id="SvgjsG1009" transform="translate(1033,25)"><path id="SvgjsPath1010" d="M 105 30L 105 914.5" stroke-dasharray="3,4" stroke="rgba(50,50,50,1)" stroke-width="2" fill="none"></path><path id="SvgjsPath1011" d="M 0 0L 210 0L 210 30L 0 30Z" stroke="rgba(50,50,50,1)" stroke-width="2" fill-opacity="1" fill="#ffffff"></path><g id="SvgjsG1012"><text id="SvgjsText1013" font-family="微软雅黑" text-anchor="middle" font-size="13px" width="190px" fill="#323232" font-weight="400" align="middle" anchor="middle" family="微软雅黑" size="13px" weight="400" font-style="" opacity="1" y="5.05" transform="rotate(0)"><tspan id="SvgjsTspan1014" dy="16" x="105"><tspan id="SvgjsTspan1015" style="text-decoration:;">PowerManagerService.java</tspan></tspan></text></g></g><g id="SvgjsG1016" transform="translate(25,25)"><path id="SvgjsPath1017" d="M 68.5 30L 68.5 914.5" stroke-dasharray="3,4" stroke="rgba(50,50,50,1)" stroke-width="2" fill="none"></path><path id="SvgjsPath1018" d="M 0 0L 137 0L 137 30L 0 30Z" stroke="rgba(50,50,50,1)" stroke-width="2" fill-opacity="1" fill="#ffffff"></path><g id="SvgjsG1019"><text id="SvgjsText1020" font-family="微软雅黑" text-anchor="middle" font-size="13px" width="117px" fill="#323232" font-weight="400" align="middle" anchor="middle" family="微软雅黑" size="13px" weight="400" font-style="" opacity="1" y="5.05" transform="rotate(0)"><tspan id="SvgjsTspan1021" dy="16" x="68.5"><tspan id="SvgjsTspan1022" style="text-decoration:;">ZygoteInit.java</tspan></tspan></text></g></g><g id="SvgjsG1023" transform="translate(201.99999999999994,25)"><path id="SvgjsPath1024" d="M 57.00000000000003 30L 57.00000000000003 907.4999999999999" stroke-dasharray="3,4" stroke="rgba(50,50,50,1)" stroke-width="2" fill="none"></path><path id="SvgjsPath1025" d="M 0 0L 114.00000000000006 0L 114.00000000000006 30L 0 30Z" stroke="rgba(50,50,50,1)" stroke-width="2" fill-opacity="1" fill="#ffffff"></path><g id="SvgjsG1026"><text id="SvgjsText1027" font-family="微软雅黑" text-anchor="middle" font-size="13px" width="95px" fill="#323232" font-weight="400" align="middle" anchor="middle" family="微软雅黑" size="13px" weight="400" font-style="" opacity="1" y="5.05" transform="rotate(0)"><tspan id="SvgjsTspan1028" dy="16" x="57.5"><tspan id="SvgjsTspan1029" style="text-decoration:;">Zygote.java</tspan></tspan></text></g></g><g id="SvgjsG1030" transform="translate(78.5,105.5)"><path id="SvgjsPath1031" d="M 0 4Q 0 0 4 0L 26 0Q 30 0 30 4L 30 32Q 30 36 26 36L 4 36Q 0 36 0 32L 0 4Z" stroke="rgba(50,50,50,1)" stroke-width="2" fill-opacity="1" fill="#ffffff"></path></g><g id="SvgjsG1032" transform="translate(78.5,184.5)"><path id="SvgjsPath1033" d="M 0 4Q 0 0 4 0L 26 0Q 30 0 30 4L 30 239Q 30 243 26 243L 4 243Q 0 243 0 239L 0 4Z" stroke="rgba(50,50,50,1)" stroke-width="2" fill-opacity="1" fill="#ffffff"></path></g><g id="SvgjsG1034"><path id="SvgjsPath1035" d="M108.5 123.5L138.5 123.5L138.5 216.0900000000001L108 216.0900000000001" stroke="#323232" stroke-width="2" fill="none" marker-end="url(#SvgjsMarker1036)"></path><rect id="SvgjsRect1038" width="112" height="16" x="82.5" y="162.04500000000004" fill="#ffffff"></rect><text id="SvgjsText1039" font-family="微软雅黑" text-anchor="middle" font-size="13px" width="112px" fill="#323232" font-weight="400" align="top" anchor="middle" family="微软雅黑" size="13px" weight="400" font-style="" opacity="1" y="160.09500000000006" transform="rotate(0)"><tspan id="SvgjsTspan1040" dy="16" x="138.5"><tspan id="SvgjsTspan1041" style="text-decoration:;">startSystemServer</tspan></tspan></text></g><g id="SvgjsG1042" transform="translate(240,241.5)"><path id="SvgjsPath1043" d="M 0 4Q 0 0 4 0L 26 0Q 30 0 30 4L 30 44Q 30 48 26 48L 4 48Q 0 48 0 44L 0 4Z" stroke="rgba(50,50,50,1)" stroke-width="2" fill-opacity="1" fill="#ffffff"></path></g><g id="SvgjsG1044"><path id="SvgjsPath1045" d="M108 244.5L174.43185165257813 244.5L174.43185165257813 243.43693256659685L240.86370330515626 243.43693256659685" stroke="#323232" stroke-width="2" fill="none" marker-end="url(#SvgjsMarker1046)"></path><rect id="SvgjsRect1048" width="109" height="16" x="119.93185165257813" y="235.96846628329843" fill="#ffffff"></rect><text id="SvgjsText1049" font-family="微软雅黑" text-anchor="middle" font-size="13px" width="109px" fill="#323232" font-weight="400" align="top" anchor="middle" family="微软雅黑" size="13px" weight="400" font-style="" opacity="1" y="234.01846628329844" transform="rotate(0)"><tspan id="SvgjsTspan1050" dy="16" x="174.43185165257813"><tspan id="SvgjsTspan1051" style="text-decoration:;">forkSystemServer</tspan></tspan></text></g><g id="SvgjsG1052" transform="translate(318,25)"><path id="SvgjsPath1053" d="M 133 30L 133 914.5" stroke-dasharray="3,4" stroke="rgba(50,50,50,1)" stroke-width="2" fill="none"></path><path id="SvgjsPath1054" d="M 0 0L 266 0L 266 30L 0 30Z" stroke="rgba(50,50,50,1)" stroke-width="2" fill-opacity="1" fill="#ffffff"></path><g id="SvgjsG1055"><text id="SvgjsText1056" font-family="微软雅黑" text-anchor="middle" font-size="13px" width="246px" fill="#323232" font-weight="400" align="middle" anchor="middle" family="微软雅黑" size="13px" weight="400" font-style="" opacity="1" y="5.05" transform="rotate(0)"><tspan id="SvgjsTspan1057" dy="16" x="133"><tspan id="SvgjsTspan1058" style="text-decoration:;">com_android_internal_os_Zygote.cpp</tspan></tspan></text></g></g><g id="SvgjsG1059" transform="translate(436,241.5)"><path id="SvgjsPath1060" d="M 0 4Q 0 0 4 0L 26 0Q 30 0 30 4L 30 119Q 30 123 26 123L 4 123Q 0 123 0 119L 0 4Z" stroke="rgba(50,50,50,1)" stroke-width="2" fill-opacity="1" fill="#ffffff"></path></g><g id="SvgjsG1061"><path id="SvgjsPath1062" d="M269.0151922469878 243.5311348337068L352.7733655910855 243.5311348337068L352.7733655910855 245.213003299579L436.5315389351832 245.213003299579" stroke="#323232" stroke-width="2" fill="none" marker-end="url(#SvgjsMarker1063)"></path><rect id="SvgjsRect1065" width="149" height="16" x="278.2733655910855" y="236.3720690666429" fill="#ffffff"></rect><text id="SvgjsText1066" font-family="微软雅黑" text-anchor="middle" font-size="13px" width="149px" fill="#323232" font-weight="400" align="top" anchor="middle" family="微软雅黑" size="13px" weight="400" font-style="" opacity="1" y="234.4220690666429" transform="rotate(0)"><tspan id="SvgjsTspan1067" dy="16" x="352.7733655910855"><tspan id="SvgjsTspan1068" style="text-decoration:;">nativeForkSystemServer</tspan></tspan></text></g><g id="SvgjsG1069" transform="translate(452,277.5)"><path id="SvgjsPath1070" d="M 0 4Q 0 0 4 0L 26 0Q 30 0 30 4L 30 71.5Q 30 75.5 26 75.5L 4 75.5Q 0 75.5 0 71.5L 0 4Z" stroke="rgba(50,50,50,1)" stroke-width="2" fill-opacity="1" fill="#ffffff"></path></g><g id="SvgjsG1071"><path id="SvgjsPath1072" d="M463.361695911422 241.64715287270207L560 241.64715287270207L560 315.25L482 315.25" stroke="#323232" stroke-width="2" fill="none" marker-end="url(#SvgjsMarker1073)"></path><rect id="SvgjsRect1075" width="184" height="16" x="468" y="261.129424392062" fill="#ffffff"></rect><text id="SvgjsText1076" font-family="微软雅黑" text-anchor="middle" font-size="13px" width="184px" fill="#323232" font-weight="400" align="top" anchor="middle" family="微软雅黑" size="13px" weight="400" font-style="" opacity="1" y="259.179424392062" transform="rotate(0)"><tspan id="SvgjsTspan1077" dy="16" x="560"><tspan id="SvgjsTspan1078" style="text-decoration:;">ForkAndSpecializeCommmon</tspan></tspan></text></g><g id="SvgjsG1079" transform="translate(96,306.5)"><path id="SvgjsPath1080" d="M 0 4Q 0 0 4 0L 26 0Q 30 0 30 4L 30 72Q 30 76 26 76L 4 76Q 0 76 0 72L 0 4Z" stroke="rgba(50,50,50,1)" stroke-width="2" fill-opacity="1" fill="#ffffff"></path></g><g id="SvgjsG1081"><path id="SvgjsPath1082" d="M108 274.5L156 274.5L156 344.5L126 344.5" stroke="#323232" stroke-width="2" fill="none" marker-end="url(#SvgjsMarker1083)"></path><rect id="SvgjsRect1085" width="173" height="16" x="69.5" y="283.5" fill="#ffffff"></rect><text id="SvgjsText1086" font-family="微软雅黑" text-anchor="middle" font-size="13px" width="173px" fill="#323232" font-weight="400" align="top" anchor="middle" family="微软雅黑" size="13px" weight="400" font-style="" opacity="1" y="281.55" transform="rotate(0)"><tspan id="SvgjsTspan1087" dy="16" x="156"><tspan id="SvgjsTspan1088" style="text-decoration:;">handleSystemServerProcess</tspan></tspan></text></g><g id="SvgjsG1089" transform="translate(78.5,455.5)"><path id="SvgjsPath1090" d="M 0 4Q 0 0 4 0L 26 0Q 30 0 30 4L 30 63Q 30 67 26 67L 4 67Q 0 67 0 63L 0 4Z" stroke="rgba(50,50,50,1)" stroke-width="2" fill-opacity="1" fill="#ffffff"></path></g><g id="SvgjsG1091" transform="translate(589,25)"><path id="SvgjsPath1092" d="M 91 30L 91 914.5" stroke-dasharray="3,4" stroke="rgba(50,50,50,1)" stroke-width="2" fill="none"></path><path id="SvgjsPath1093" d="M 0 0L 182 0L 182 30L 0 30Z" stroke="rgba(50,50,50,1)" stroke-width="2" fill-opacity="1" fill="#ffffff"></path><g id="SvgjsG1094"><text id="SvgjsText1095" font-family="微软雅黑" text-anchor="middle" font-size="13px" width="162px" fill="#323232" font-weight="400" align="middle" anchor="middle" family="微软雅黑" size="13px" weight="400" font-style="" opacity="1" y="5.05" transform="rotate(0)"><tspan id="SvgjsTspan1096" dy="16" x="91"><tspan id="SvgjsTspan1097" style="text-decoration:;">SystemManager.java</tspan></tspan></text></g></g><g id="SvgjsG1098" transform="translate(665,453.5)"><path id="SvgjsPath1099" d="M 0 4Q 0 0 4 0L 26 0Q 30 0 30 4L 30 39Q 30 43 26 43L 4 43Q 0 43 0 39L 0 4Z" stroke="rgba(50,50,50,1)" stroke-width="2" fill-opacity="1" fill="#ffffff"></path></g><g id="SvgjsG1100"><path id="SvgjsPath1101" d="M106.0340741737109 458.75881904510254L385.51703708685545 458.75881904510254L385.51703708685545 457.79999999999995L665 457.79999999999995" stroke="#323232" stroke-width="2" fill="none" marker-end="url(#SvgjsMarker1102)"></path><rect id="SvgjsRect1104" width="57" height="16" x="357.01703708685545" y="450.27940952255125" fill="#ffffff"></rect><text id="SvgjsText1105" font-family="微软雅黑" text-anchor="middle" font-size="13px" width="57px" fill="#323232" font-weight="400" align="top" anchor="middle" family="微软雅黑" size="13px" weight="400" font-style="" opacity="1" y="448.32940952255126" transform="rotate(0)"><tspan id="SvgjsTspan1106" dy="16" x="385.51703708685545"><tspan id="SvgjsTspan1107" style="text-decoration:;">caller.run</tspan></tspan></text></g><g id="SvgjsG1108" transform="translate(665,522.5)"><path id="SvgjsPath1109" d="M 0 4Q 0 0 4 0L 26 0Q 30 0 30 4L 30 286Q 30 290 26 290L 4 290Q 0 290 0 286L 0 4Z" stroke="rgba(50,50,50,1)" stroke-width="2" fill-opacity="1" fill="#ffffff"></path></g><g id="SvgjsG1110"><path id="SvgjsPath1111" d="M694.0114159057248 487.23853277175704L725 487.23853277175704L725 529.5L695 529.5" stroke="#323232" stroke-width="2" fill="none" marker-end="url(#SvgjsMarker1112)"></path><rect id="SvgjsRect1114" width="21" height="16" x="714.5" y="499.87497433874086" fill="#ffffff"></rect><text id="SvgjsText1115" font-family="微软雅黑" text-anchor="middle" font-size="13px" width="21px" fill="#323232" font-weight="400" align="top" anchor="middle" family="微软雅黑" size="13px" weight="400" font-style="" opacity="1" y="497.92497433874087" transform="rotate(0)"><tspan id="SvgjsTspan1116" dy="16" x="725"><tspan id="SvgjsTspan1117" style="text-decoration:;">run</tspan></tspan></text></g><g id="SvgjsG1118"><path id="SvgjsPath1119" d="M695 548.5L742 548.5L742 591.6875L712 591.6875" stroke="#323232" stroke-width="2" fill="none" marker-end="url(#SvgjsMarker1120)"></path><rect id="SvgjsRect1122" width="128" height="16" x="678" y="553.59375" fill="#ffffff"></rect><text id="SvgjsText1123" font-family="微软雅黑" text-anchor="middle" font-size="13px" width="128px" fill="#323232" font-weight="400" align="top" anchor="middle" family="微软雅黑" size="13px" weight="400" font-style="" opacity="1" y="551.64375" transform="rotate(0)"><tspan id="SvgjsTspan1124" dy="16" x="742"><tspan id="SvgjsTspan1125" style="text-decoration:;">startBootsrapService</tspan></tspan></text></g><g id="SvgjsG1126" transform="translate(683,586)"><path id="SvgjsPath1127" d="M 0 4Q 0 0 4 0L 26 0Q 30 0 30 4L 30 41.5Q 30 45.5 26 45.5L 4 45.5Q 0 45.5 0 41.5L 0 4Z" stroke="rgba(50,50,50,1)" stroke-width="2" fill-opacity="1" fill="#ffffff"></path></g><g id="SvgjsG1128" transform="translate(781,25)"><path id="SvgjsPath1129" d="M 122 30L 122 914.5" stroke-dasharray="3,4" stroke="rgba(50,50,50,1)" stroke-width="2" fill="none"></path><path id="SvgjsPath1130" d="M 0 0L 244 0L 244 30L 0 30Z" stroke="rgba(50,50,50,1)" stroke-width="2" fill-opacity="1" fill="#ffffff"></path><g id="SvgjsG1131"><text id="SvgjsText1132" font-family="微软雅黑" text-anchor="middle" font-size="13px" width="224px" fill="#323232" font-weight="400" align="middle" anchor="middle" family="微软雅黑" size="13px" weight="400" font-style="" opacity="1" y="5.05" transform="rotate(0)"><tspan id="SvgjsTspan1133" dy="16" x="122"><tspan id="SvgjsTspan1134" style="text-decoration:;">SystemServiceManager.java</tspan></tspan></text></g></g><g id="SvgjsG1135" transform="translate(888,610.5)"><path id="SvgjsPath1136" d="M 0 4Q 0 0 4 0L 26 0Q 30 0 30 4L 30 63.5Q 30 67.5 26 67.5L 4 67.5Q 0 67.5 0 63.5L 0 4Z" stroke="rgba(50,50,50,1)" stroke-width="2" fill-opacity="1" fill="#ffffff"></path></g><g id="SvgjsG1137"><path id="SvgjsPath1138" d="M713 619.5L800.5 619.5L800.5 616.575L888 616.575" stroke="#323232" stroke-width="2" fill="none" marker-end="url(#SvgjsMarker1139)"></path><rect id="SvgjsRect1141" width="72" height="16" x="764.5" y="610.0375" fill="#ffffff"></rect><text id="SvgjsText1142" font-family="微软雅黑" text-anchor="middle" font-size="13px" width="72px" fill="#323232" font-weight="400" align="top" anchor="middle" family="微软雅黑" size="13px" weight="400" font-style="" opacity="1" y="608.0875" transform="rotate(0)"><tspan id="SvgjsTspan1143" dy="16" x="800.5"><tspan id="SvgjsTspan1144" style="text-decoration:;">startService</tspan></tspan></text></g><g id="SvgjsG1145" transform="translate(1123,610.5)"><path id="SvgjsPath1146" d="M 0 4Q 0 0 4 0L 26 0Q 30 0 30 4L 30 63.5Q 30 67.5 26 67.5L 4 67.5Q 0 67.5 0 63.5L 0 4Z" stroke="rgba(50,50,50,1)" stroke-width="2" fill-opacity="1" fill="#ffffff"></path></g><g id="SvgjsG1147"><path id="SvgjsPath1148" d="M916 615.225L1019.5 615.225L1019.5 615.225L1123 615.225" stroke="#323232" stroke-width="2" fill="none" marker-end="url(#SvgjsMarker1149)"></path><rect id="SvgjsRect1151" width="139" height="16" x="950" y="607.225" fill="#ffffff"></rect><text id="SvgjsText1152" font-family="微软雅黑" text-anchor="middle" font-size="13px" width="139px" fill="#323232" font-weight="400" align="top" anchor="middle" family="微软雅黑" size="13px" weight="400" font-style="" opacity="1" y="605.275" transform="rotate(0)"><tspan id="SvgjsTspan1153" dy="16" x="1019.5"><tspan id="SvgjsTspan1154" style="text-decoration:;">PowerManagerService</tspan></tspan></text></g><g id="SvgjsG1155"><path id="SvgjsPath1156" d="M916 665.85L1019.5 665.85L1019.5 665.85L1123 665.85" stroke="#323232" stroke-width="2" fill="none" marker-end="url(#SvgjsMarker1157)"></path><rect id="SvgjsRect1159" width="46" height="16" x="996.5" y="657.85" fill="#ffffff"></rect><text id="SvgjsText1160" font-family="微软雅黑" text-anchor="middle" font-size="13px" width="46px" fill="#323232" font-weight="400" align="top" anchor="middle" family="微软雅黑" size="13px" weight="400" font-style="" opacity="1" y="655.9" transform="rotate(0)"><tspan id="SvgjsTspan1161" dy="16" x="1019.5"><tspan id="SvgjsTspan1162" style="text-decoration:;">onStart</tspan></tspan></text></g><g id="SvgjsG1163" transform="translate(679,715.5)"><path id="SvgjsPath1164" d="M 0 4Q 0 0 4 0L 26 0Q 30 0 30 4L 30 50Q 30 54 26 54L 4 54Q 0 54 0 50L 0 4Z" stroke="rgba(50,50,50,1)" stroke-width="2" fill-opacity="1" fill="#ffffff"></path></g><g id="SvgjsG1165"><path id="SvgjsPath1166" d="M695 667.5L739 667.5L739 725.5L709 725.5" stroke="#323232" stroke-width="2" fill="none" marker-end="url(#SvgjsMarker1167)"></path><rect id="SvgjsRect1169" width="108" height="16" x="685" y="681.5" fill="#ffffff"></rect><text id="SvgjsText1170" font-family="微软雅黑" text-anchor="middle" font-size="13px" width="108px" fill="#323232" font-weight="400" align="top" anchor="middle" family="微软雅黑" size="13px" weight="400" font-style="" opacity="1" y="679.55" transform="rotate(0)"><tspan id="SvgjsTspan1171" dy="16" x="739"><tspan id="SvgjsTspan1172" style="text-decoration:;">startOtherService</tspan></tspan></text></g><g id="SvgjsG1173" transform="translate(1123,744.5)"><path id="SvgjsPath1174" d="M 0 4Q 0 0 4 0L 26 0Q 30 0 30 4L 30 70Q 30 74 26 74L 4 74Q 0 74 0 70L 0 4Z" stroke="rgba(50,50,50,1)" stroke-width="2" fill-opacity="1" fill="#ffffff"></path></g><g id="SvgjsG1175"><path id="SvgjsPath1176" d="M708.0076106038165 760.3256885145047L915.5038053019082 760.3256885145047L915.5038053019082 760.5L1123 760.5" stroke="#323232" stroke-width="2" fill="none" marker-end="url(#SvgjsMarker1177)"></path><rect id="SvgjsRect1179" width="82" height="16" x="874.5038053019082" y="752.4128442572523" fill="#ffffff"></rect><text id="SvgjsText1180" font-family="微软雅黑" text-anchor="middle" font-size="13px" width="82px" fill="#323232" font-weight="400" align="top" anchor="middle" family="微软雅黑" size="13px" weight="400" font-style="" opacity="1" y="750.4628442572523" transform="rotate(0)"><tspan id="SvgjsTspan1181" dy="16" x="915.5038053019082"><tspan id="SvgjsTspan1182" style="text-decoration:;">systemReady</tspan></tspan></text></g></svg>