<svg id="SvgjsSvg1006" width="1439" height="772" xmlns="http://www.w3.org/2000/svg" version="1.1" xmlns:xlink="http://www.w3.org/1999/xlink" xmlns:svgjs="http://svgjs.com/svgjs"><defs id="SvgjsDefs1007"><marker id="SvgjsMarker1047" markerWidth="16" markerHeight="12" refX="16" refY="6" viewBox="0 0 16 12" orient="auto" markerUnits="userSpaceOnUse" stroke-dasharray="0,0"><path id="SvgjsPath1048" d="M0,2 L14,6 L0,11 L0,2" fill="#323232" stroke="#323232" stroke-width="2"></path></marker><marker id="SvgjsMarker1055" markerWidth="16" markerHeight="12" refX="16" refY="6" viewBox="0 0 16 12" orient="auto" markerUnits="userSpaceOnUse" stroke-dasharray="0,0"><path id="SvgjsPath1056" d="M0,2 L14,6 L0,11 L0,2" fill="#323232" stroke="#323232" stroke-width="2"></path></marker><marker id="SvgjsMarker1063" markerWidth="16" markerHeight="12" refX="16" refY="6" viewBox="0 0 16 12" orient="auto" markerUnits="userSpaceOnUse" stroke-dasharray="0,0"><path id="SvgjsPath1064" d="M0,2 L14,6 L0,11 L0,2" fill="#323232" stroke="#323232" stroke-width="2"></path></marker><marker id="SvgjsMarker1077" markerWidth="16" markerHeight="12" refX="16" refY="6" viewBox="0 0 16 12" orient="auto" markerUnits="userSpaceOnUse" stroke-dasharray="0,0"><path id="SvgjsPath1078" d="M0,2 L14,6 L0,11 L0,2" fill="#323232" stroke="#323232" stroke-width="2"></path></marker><marker id="SvgjsMarker1085" markerWidth="16" markerHeight="12" refX="16" refY="6" viewBox="0 0 16 12" orient="auto" markerUnits="userSpaceOnUse" stroke-dasharray="0,0"><path id="SvgjsPath1086" d="M0,2 L14,6 L0,11 L0,2" fill="#323232" stroke="#323232" stroke-width="2"></path></marker><marker id="SvgjsMarker1093" markerWidth="16" markerHeight="12" refX="16" refY="6" viewBox="0 0 16 12" orient="auto" markerUnits="userSpaceOnUse" stroke-dasharray="0,0"><path id="SvgjsPath1094" d="M0,2 L14,6 L0,11 L0,2" fill="#323232" stroke="#323232" stroke-width="2"></path></marker><marker id="SvgjsMarker1103" markerWidth="16" markerHeight="12" refX="16" refY="6" viewBox="0 0 16 12" orient="auto" markerUnits="userSpaceOnUse" stroke-dasharray="0,0"><path id="SvgjsPath1104" d="M0,2 L14,6 L0,11 L0,2" fill="#323232" stroke="#323232" stroke-width="2"></path></marker><marker id="SvgjsMarker1113" markerWidth="16" markerHeight="12" refX="16" refY="6" viewBox="0 0 16 12" orient="auto" markerUnits="userSpaceOnUse" stroke-dasharray="0,0"><path id="SvgjsPath1114" d="M0,2 L14,6 L0,11 L0,2" fill="#323232" stroke="#323232" stroke-width="2"></path></marker><marker id="SvgjsMarker1123" markerWidth="16" markerHeight="12" refX="16" refY="6" viewBox="0 0 16 12" orient="auto" markerUnits="userSpaceOnUse" stroke-dasharray="0,0"><path id="SvgjsPath1124" d="M0,2 L14,6 L0,11 L0,2" fill="#323232" stroke="#323232" stroke-width="2"></path></marker><marker id="SvgjsMarker1140" markerWidth="16" markerHeight="12" refX="16" refY="6" viewBox="0 0 16 12" orient="auto" markerUnits="userSpaceOnUse" stroke-dasharray="0,0"><path id="SvgjsPath1141" d="M0,2 L14,6 L0,11 L0,2" fill="#323232" stroke="#323232" stroke-width="2"></path></marker><marker id="SvgjsMarker1157" markerWidth="16" markerHeight="12" refX="16" refY="6" viewBox="0 0 16 12" orient="auto" markerUnits="userSpaceOnUse" stroke-dasharray="0,0"><path id="SvgjsPath1158" d="M0,2 L14,6 L0,11 L0,2" fill="#323232" stroke="#323232" stroke-width="2"></path></marker><marker id="SvgjsMarker1167" markerWidth="16" markerHeight="12" refX="16" refY="6" viewBox="0 0 16 12" orient="auto" markerUnits="userSpaceOnUse" stroke-dasharray="0,0"><path id="SvgjsPath1168" d="M0,2 L14,6 L0,11 L0,2" fill="#323232" stroke="#323232" stroke-width="2"></path></marker></defs><rect id="SvgjsRect1008" width="1439" height="772" fill="#ffffff"></rect><g id="SvgjsG1009" transform="translate(25,30.5)"><path id="SvgjsPath1010" d="M 75 30L 75 600.5" stroke-dasharray="3,4" stroke="rgba(50,50,50,1)" stroke-width="2" fill="none"></path><path id="SvgjsPath1011" d="M 0 0L 150 0L 150 30L 0 30Z" stroke="rgba(50,50,50,1)" stroke-width="2" fill-opacity="1" fill="#ffffff"></path><g id="SvgjsG1012"><text id="SvgjsText1013" font-family="微软雅黑" text-anchor="middle" font-size="13px" width="130px" fill="#323232" font-weight="400" align="middle" anchor="middle" family="微软雅黑" size="13px" weight="400" font-style="" opacity="1" y="5.05" transform="rotate(0)"><tspan id="SvgjsTspan1014" dy="16" x="75"><tspan id="SvgjsTspan1015" style="text-decoration:;">PowerManager.java</tspan></tspan></text></g></g><g id="SvgjsG1016" transform="translate(540.494140625,30)"><path id="SvgjsPath1017" d="M 55.505859375 30L 55.505859375 601.5" stroke-dasharray="3,4" stroke="rgba(50,50,50,1)" stroke-width="2" fill="none"></path><path id="SvgjsPath1018" d="M 0 0L 111.01171875 0L 111.01171875 30L 0 30Z" stroke="rgba(50,50,50,1)" stroke-width="2" fill-opacity="1" fill="#ffffff"></path><g id="SvgjsG1019"><text id="SvgjsText1020" font-family="微软雅黑" text-anchor="middle" font-size="13px" width="92px" fill="#323232" font-weight="400" align="middle" anchor="middle" family="微软雅黑" size="13px" weight="400" font-style="" opacity="1" y="5.05" transform="rotate(0)"><tspan id="SvgjsTspan1021" dy="16" x="56"><tspan id="SvgjsTspan1022" style="text-decoration:;">Notifier.java</tspan></tspan></text></g></g><g id="SvgjsG1023" transform="translate(775.494140625,25)"><path id="SvgjsPath1024" d="M 98.7529296875 30L 98.7529296875 606" stroke-dasharray="3,4" stroke="rgba(50,50,50,1)" stroke-width="2" fill="none"></path><path id="SvgjsPath1025" d="M 0 0L 197.505859375 0L 197.505859375 30L 0 30Z" stroke="rgba(50,50,50,1)" stroke-width="2" fill-opacity="1" fill="#ffffff"></path><g id="SvgjsG1026"><text id="SvgjsText1027" font-family="微软雅黑" text-anchor="middle" font-size="13px" width="178px" fill="#323232" font-weight="400" align="middle" anchor="middle" family="微软雅黑" size="13px" weight="400" font-style="" opacity="1" y="5.05" transform="rotate(0)"><tspan id="SvgjsTspan1028" dy="16" x="99"><tspan id="SvgjsTspan1029" style="text-decoration:;">PhoneWindowManager.java</tspan></tspan></text></g></g><g id="SvgjsG1030" transform="translate(204.744140625,30.5)"><path id="SvgjsPath1031" d="M 96.6279296875 30L 96.6279296875 646.5" stroke-dasharray="3,4" stroke="rgba(50,50,50,1)" stroke-width="2" fill="none"></path><path id="SvgjsPath1032" d="M 0 0L 193.255859375 0L 193.255859375 30L 0 30Z" stroke="rgba(50,50,50,1)" stroke-width="2" fill-opacity="1" fill="#ffffff"></path><g id="SvgjsG1033"><text id="SvgjsText1034" font-family="微软雅黑" text-anchor="middle" font-size="13px" width="174px" fill="#323232" font-weight="400" align="middle" anchor="middle" family="微软雅黑" size="13px" weight="400" font-style="" opacity="1" y="5.05" transform="rotate(0)"><tspan id="SvgjsTspan1035" dy="16" x="97"><tspan id="SvgjsTspan1036" style="text-decoration:;">PowerManagerService.java</tspan></tspan></text></g></g><g id="SvgjsG1037" transform="translate(85,92.5)"><path id="SvgjsPath1038" d="M 0 4Q 0 0 4 0L 26 0Q 30 0 30 4L 30 267.25Q 30 271.25 26 271.25L 4 271.25Q 0 271.25 0 267.25L 0 4Z" stroke="rgba(50,50,50,1)" stroke-width="2" fill-opacity="1" fill="#ffffff"></path></g><g id="SvgjsG1039" transform="translate(286.3720703125,102.5)"><path id="SvgjsPath1040" d="M 0 4Q 0 0 4 0L 26 0Q 30 0 30 4L 30 537.5Q 30 541.5 26 541.5L 4 541.5Q 0 541.5 0 537.5L 0 4Z" stroke="rgba(50,50,50,1)" stroke-width="2" fill-opacity="1" fill="#ffffff"></path></g><g id="SvgjsG1041" transform="translate(581,259.25)"><path id="SvgjsPath1042" d="M 0 4Q 0 0 4 0L 26 0Q 30 0 30 4L 30 100.5Q 30 104.5 26 104.5L 4 104.5Q 0 104.5 0 100.5L 0 4Z" stroke="rgba(50,50,50,1)" stroke-width="2" fill-opacity="1" fill="#ffffff"></path></g><g id="SvgjsG1043" transform="translate(859.2470703125,318.25)"><path id="SvgjsPath1044" d="M 0 4Q 0 0 4 0L 26 0Q 30 0 30 4L 30 35.5Q 30 39.5 26 39.5L 4 39.5Q 0 39.5 0 35.5L 0 4Z" stroke="rgba(50,50,50,1)" stroke-width="2" fill-opacity="1" fill="#ffffff"></path></g><g id="SvgjsG1045"><path id="SvgjsPath1046" d="M315.0603073792141 105.88694026353429L355.80384757729337 105.88694026353429L355.80384757729337 147L325.80384757729337 147" stroke="#323232" stroke-width="2" fill="none" marker-end="url(#SvgjsMarker1047)"></path><rect id="SvgjsRect1049" width="106" height="16" x="302.80384757729337" y="118.44347013176713" fill="#ffffff"></rect><text id="SvgjsText1050" font-family="微软雅黑" text-anchor="middle" font-size="13px" width="106px" fill="#323232" font-weight="400" align="top" anchor="middle" family="微软雅黑" size="13px" weight="400" font-style="" opacity="1" y="116.49347013176713" transform="rotate(0)"><tspan id="SvgjsTspan1051" dy="16" x="355.80384757729337"><tspan id="SvgjsTspan1052" style="text-decoration:;">wakeUpInternal()</tspan></tspan></text></g><g id="SvgjsG1053"><path id="SvgjsPath1054" d="M115 104.49899463806972L200.90953893117887 104.49899463806972L200.90953893117887 107.14469175834483L286.81907786235774 107.14469175834483" stroke="#323232" stroke-width="2" fill="none" marker-end="url(#SvgjsMarker1055)"></path><rect id="SvgjsRect1057" width="59" height="16" x="171.40953893117887" y="97.82184319820728" fill="#ffffff"></rect><text id="SvgjsText1058" font-family="微软雅黑" text-anchor="middle" font-size="13px" width="59px" fill="#323232" font-weight="400" align="top" anchor="middle" family="微软雅黑" size="13px" weight="400" font-style="" opacity="1" y="95.87184319820727" transform="rotate(0)"><tspan id="SvgjsTspan1059" dy="16" x="200.90953893117887"><tspan id="SvgjsTspan1060" style="text-decoration:;">wakeUp()</tspan></tspan></text></g><g id="SvgjsG1061"><path id="SvgjsPath1062" d="M330 163.44897959183675L372.6698729810778 163.44897959183675L372.6698729810778 196.4157608695652L342.6698729810778 196.4157608695652" stroke="#323232" stroke-width="2" fill="none" marker-end="url(#SvgjsMarker1063)"></path><rect id="SvgjsRect1065" width="170" height="16" x="287.6698729810778" y="165.59743374016207" fill="#ffffff"></rect><text id="SvgjsText1066" font-family="微软雅黑" text-anchor="middle" font-size="13px" width="170px" fill="#323232" font-weight="400" align="top" anchor="middle" family="微软雅黑" size="13px" weight="400" font-style="" opacity="1" y="163.64743374016209" transform="rotate(0)"><tspan id="SvgjsTspan1067" dy="16" x="372.6698729810778"><tspan id="SvgjsTspan1068" style="text-decoration:;">WakeUpNoUpdateLocked()</tspan></tspan></text></g><g id="SvgjsG1069" transform="translate(300,147)"><path id="SvgjsPath1070" d="M 0 4Q 0 0 4 0L 26 0Q 30 0 30 4L 30 461Q 30 465 26 465L 4 465Q 0 465 0 461L 0 4Z" stroke="rgba(50,50,50,1)" stroke-width="2" fill-opacity="1" fill="#ffffff"></path></g><g id="SvgjsG1071" transform="translate(316.3720703125,196)"><path id="SvgjsPath1072" d="M 0 4Q 0 0 4 0L 26 0Q 30 0 30 4L 30 149Q 30 153 26 153L 4 153Q 0 153 0 149L 0 4Z" stroke="rgba(50,50,50,1)" stroke-width="2" fill-opacity="1" fill="#ffffff"></path></g><g id="SvgjsG1073" transform="translate(334,244.5)"><path id="SvgjsPath1074" d="M 0 4Q 0 0 4 0L 26 0Q 30 0 30 4L 30 65Q 30 69 26 69L 4 69Q 0 69 0 65L 0 4Z" stroke="rgba(50,50,50,1)" stroke-width="2" fill-opacity="1" fill="#ffffff"></path></g><g id="SvgjsG1075"><path id="SvgjsPath1076" d="M346 210.13586956521738L393.0190265095413 210.13586956521738L393.0190265095413 246.1806873124794L363.0190265095413 246.1806873124794" stroke="#323232" stroke-width="2" fill="none" marker-end="url(#SvgjsMarker1077)"></path><rect id="SvgjsRect1079" width="149" height="16" x="318.51902650954116" y="220.15827843884836" fill="#ffffff"></rect><text id="SvgjsText1080" font-family="微软雅黑" text-anchor="middle" font-size="13px" width="149px" fill="#323232" font-weight="400" align="top" anchor="middle" family="微软雅黑" size="13px" weight="400" font-style="" opacity="1" y="218.20827843884837" transform="rotate(0)"><tspan id="SvgjsTspan1081" dy="16" x="393.01902650954116"><tspan id="SvgjsTspan1082" style="text-decoration:;">setWakefulnessLocked()</tspan></tspan></text></g><g id="SvgjsG1083"><path id="SvgjsPath1084" d="M364 254.505L475 254.505L475 259.25L586 259.25" stroke="#323232" stroke-width="2" fill="none" marker-end="url(#SvgjsMarker1085)"></path><rect id="SvgjsRect1087" width="188" height="16" x="381" y="248.8775" fill="#ffffff"></rect><text id="SvgjsText1088" font-family="微软雅黑" text-anchor="middle" font-size="13px" width="188px" fill="#323232" font-weight="400" align="top" anchor="middle" family="微软雅黑" size="13px" weight="400" font-style="" opacity="1" y="246.9275" transform="rotate(0)"><tspan id="SvgjsTspan1089" dy="16" x="475"><tspan id="SvgjsTspan1090" style="text-decoration:;">onWakefulnessChangeStarte()</tspan></tspan></text></g><g id="SvgjsG1091"><path id="SvgjsPath1092" d="M623 322.5L741.12353515625 322.5L741.12353515625 322.5L859.2470703125 322.5" stroke="#323232" stroke-width="2" fill="none" marker-end="url(#SvgjsMarker1093)"></path><rect id="SvgjsRect1095" width="109" height="16" x="686.62353515625" y="327.5" fill="#ffffff"></rect><text id="SvgjsText1096" font-family="微软雅黑" text-anchor="middle" font-size="13px" width="109px" fill="#323232" font-weight="400" align="top" anchor="middle" family="微软雅黑" size="13px" weight="400" font-style="" opacity="1" y="325.55" transform="rotate(0)"><tspan id="SvgjsTspan1097" dy="16" x="741.12353515625"><tspan id="SvgjsTspan1098" style="text-decoration:;">startedWakingUp</tspan></tspan></text></g><g id="SvgjsG1099" transform="translate(593,296)"><path id="SvgjsPath1100" d="M 0 4Q 0 0 4 0L 26 0Q 30 0 30 4L 30 49Q 30 53 26 53L 4 53Q 0 53 0 49L 0 4Z" stroke="rgba(50,50,50,1)" stroke-width="2" fill-opacity="1" fill="#ffffff"></path></g><g id="SvgjsG1101"><path id="SvgjsPath1102" d="M609.0911534819268 259.93532014407594L719 259.93532014407594L719 308L623 308" stroke="#323232" stroke-width="2" fill="none" marker-end="url(#SvgjsMarker1103)"></path><rect id="SvgjsRect1105" width="187" height="16" x="625.5" y="269.0132368130014" fill="#ffffff"></rect><text id="SvgjsText1106" font-family="微软雅黑" text-anchor="middle" font-size="13px" width="187px" fill="#323232" font-weight="400" align="top" anchor="middle" family="微软雅黑" size="13px" weight="400" font-style="" opacity="1" y="267.0632368130014" transform="rotate(0)"><tspan id="SvgjsTspan1107" dy="16" x="719"><tspan id="SvgjsTspan1108" style="text-decoration:;">handleEarlyInterativeChange()</tspan></tspan></text></g><g id="SvgjsG1109" transform="translate(316.3720703125,410)"><path id="SvgjsPath1110" d="M 0 4Q 0 0 4 0L 26 0Q 30 0 30 4L 30 176Q 30 180 26 180L 4 180Q 0 180 0 176L 0 4Z" stroke="rgba(50,50,50,1)" stroke-width="2" fill-opacity="1" fill="#ffffff"></path></g><g id="SvgjsG1111"><path id="SvgjsPath1112" d="M330 366L456.0151922469878 366L456.0151922469878 413.1736481776669L345.0151922469878 413.1736481776669" stroke="#323232" stroke-width="2" fill="none" marker-end="url(#SvgjsMarker1113)"></path><rect id="SvgjsRect1115" width="168" height="16" x="372.0151922469877" y="381.5868240888334" fill="#ffffff"></rect><text id="SvgjsText1116" font-family="微软雅黑" text-anchor="middle" font-size="13px" width="168px" fill="#323232" font-weight="400" align="top" anchor="middle" family="微软雅黑" size="13px" weight="400" font-style="" opacity="1" y="379.6368240888334" transform="rotate(0)"><tspan id="SvgjsTspan1117" dy="16" x="456.0151922469877"><tspan id="SvgjsTspan1118" style="text-decoration:;">updatePowerStateLocked()</tspan></tspan></text></g><g id="SvgjsG1119" transform="translate(330,468)"><path id="SvgjsPath1120" d="M 0 4Q 0 0 4 0L 26 0Q 30 0 30 4L 30 106Q 30 110 26 110L 4 110Q 0 110 0 106L 0 4Z" stroke="rgba(50,50,50,1)" stroke-width="2" fill-opacity="1" fill="#ffffff"></path></g><g id="SvgjsG1121"><path id="SvgjsPath1122" d="M345 437L472 437L472 495L360 495" stroke="#323232" stroke-width="2" fill="none" marker-end="url(#SvgjsMarker1123)"></path><rect id="SvgjsRect1125" width="213" height="16" x="365.5" y="450.5" fill="#ffffff"></rect><text id="SvgjsText1126" font-family="微软雅黑" text-anchor="middle" font-size="13px" width="213px" fill="#323232" font-weight="400" align="top" anchor="middle" family="微软雅黑" size="13px" weight="400" font-style="" opacity="1" y="448.55" transform="rotate(0)"><tspan id="SvgjsTspan1127" dy="16" x="472"><tspan id="SvgjsTspan1128" style="text-decoration:;">updateDisplayPowerStateLocked()</tspan></tspan></text></g><g id="SvgjsG1129" transform="translate(979,25)"><path id="SvgjsPath1130" d="M 107.5 30L 107.5 722" stroke-dasharray="3,4" stroke="rgba(50,50,50,1)" stroke-width="2" fill="none"></path><path id="SvgjsPath1131" d="M 0 0L 215 0L 215 30L 0 30Z" stroke="rgba(50,50,50,1)" stroke-width="2" fill-opacity="1" fill="#ffffff"></path><g id="SvgjsG1132"><text id="SvgjsText1133" font-family="微软雅黑" text-anchor="middle" font-size="13px" width="195px" fill="#323232" font-weight="400" align="middle" anchor="middle" family="微软雅黑" size="13px" weight="400" font-style="" opacity="1" y="5.05" transform="rotate(0)"><tspan id="SvgjsTspan1134" dy="16" x="107.5"><tspan id="SvgjsTspan1135" style="text-decoration:;">DisplayManagerService.java</tspan></tspan></text></g></g><g id="SvgjsG1136" transform="translate(1068.5,524)"><path id="SvgjsPath1137" d="M 0 4Q 0 0 4 0L 26 0Q 30 0 30 4L 30 96Q 30 100 26 100L 4 100Q 0 100 0 96L 0 4Z" stroke="rgba(50,50,50,1)" stroke-width="2" fill-opacity="1" fill="#ffffff"></path></g><g id="SvgjsG1138"><path id="SvgjsPath1139" d="M360 523L722 523L722 523L1084 523" stroke="#323232" stroke-width="2" fill="none" marker-end="url(#SvgjsMarker1140)"></path><rect id="SvgjsRect1142" width="126" height="16" x="659" y="515" fill="#ffffff"></rect><text id="SvgjsText1143" font-family="微软雅黑" text-anchor="middle" font-size="13px" width="126px" fill="#323232" font-weight="400" align="top" anchor="middle" family="微软雅黑" size="13px" weight="400" font-style="" opacity="1" y="513.05" transform="rotate(0)"><tspan id="SvgjsTspan1144" dy="16" x="722"><tspan id="SvgjsTspan1145" style="text-decoration:;">requestPowerState()</tspan></tspan></text></g><g id="SvgjsG1146" transform="translate(1208,25)"><path id="SvgjsPath1147" d="M 103 30L 103 717" stroke-dasharray="3,4" stroke="rgba(50,50,50,1)" stroke-width="2" fill="none"></path><path id="SvgjsPath1148" d="M 0 0L 206 0L 206 30L 0 30Z" stroke="rgba(50,50,50,1)" stroke-width="2" fill-opacity="1" fill="#ffffff"></path><g id="SvgjsG1149"><text id="SvgjsText1150" font-family="微软雅黑" text-anchor="middle" font-size="13px" width="186px" fill="#323232" font-weight="400" align="middle" anchor="middle" family="微软雅黑" size="13px" weight="400" font-style="" opacity="1" y="5.05" transform="rotate(0)"><tspan id="SvgjsTspan1151" dy="16" x="103"><tspan id="SvgjsTspan1152" style="text-decoration:;">DisplayPowerController.java</tspan></tspan></text></g></g><g id="SvgjsG1153" transform="translate(1296,528)"><path id="SvgjsPath1154" d="M 0 4Q 0 0 4 0L 26 0Q 30 0 30 4L 30 46Q 30 50 26 50L 4 50Q 0 50 0 46L 0 4Z" stroke="rgba(50,50,50,1)" stroke-width="2" fill-opacity="1" fill="#ffffff"></path></g><g id="SvgjsG1155"><path id="SvgjsPath1156" d="M1098 530L1197 530L1197 530.5L1296 530.5" stroke="#323232" stroke-width="2" fill="none" marker-end="url(#SvgjsMarker1157)"></path><rect id="SvgjsRect1159" width="117" height="16" x="1138.5" y="522.25" fill="#ffffff"></rect><text id="SvgjsText1160" font-family="微软雅黑" text-anchor="middle" font-size="13px" width="117px" fill="#323232" font-weight="400" align="top" anchor="middle" family="微软雅黑" size="13px" weight="400" font-style="" opacity="1" y="520.3" transform="rotate(0)"><tspan id="SvgjsTspan1161" dy="16" x="1197"><tspan id="SvgjsTspan1162" style="text-decoration:;">requestPowerState</tspan></tspan></text></g><g id="SvgjsG1163" transform="translate(1296,612)"><path id="SvgjsPath1164" d="M 0 4Q 0 0 4 0L 26 0Q 30 0 30 4L 30 96Q 30 100 26 100L 4 100Q 0 100 0 96L 0 4Z" stroke="rgba(50,50,50,1)" stroke-width="2" fill-opacity="1" fill="#ffffff"></path></g><g id="SvgjsG1165"><path id="SvgjsPath1166" d="M1326 553L1356 553L1356 615.1736481776669L1325.0151922469877 615.1736481776669" stroke="#323232" stroke-width="2" fill="none" marker-end="url(#SvgjsMarker1167)"></path><rect id="SvgjsRect1169" width="115" height="16" x="1298.5" y="576.5792279653397" fill="#ffffff"></rect><text id="SvgjsText1170" font-family="微软雅黑" text-anchor="middle" font-size="13px" width="115px" fill="#323232" font-weight="400" align="top" anchor="middle" family="微软雅黑" size="13px" weight="400" font-style="" opacity="1" y="574.6292279653396" transform="rotate(0)"><tspan id="SvgjsTspan1171" dy="16" x="1356"><tspan id="SvgjsTspan1172" style="text-decoration:;">updatePowerState</tspan></tspan></text></g></svg>